<mxfile host="app.diagrams.net" agent="Mozilla/5.0 (Windows NT 10.0; Win64; x64) AppleWebKit/537.36 (KHTML, like Gecko) Chrome/131.0.0.0 Safari/537.36" version="25.0.1">
  <diagram name="Trang-1" id="Wnbrl9ANiOpPH0Ehy43K">
    <mxGraphModel dx="880" dy="468" grid="1" gridSize="10" guides="1" tooltips="1" connect="1" arrows="1" fold="1" page="1" pageScale="1" pageWidth="827" pageHeight="1169" math="0" shadow="0">
      <root>
        <mxCell id="0" />
        <mxCell id="1" parent="0" />
        <mxCell id="eC_KWD_Ks0Vh9gt3xqMd-1" value="Start" style="ellipse;whiteSpace=wrap;html=1;" parent="1" vertex="1">
          <mxGeometry x="360" y="80" width="120" height="80" as="geometry" />
        </mxCell>
        <mxCell id="eC_KWD_Ks0Vh9gt3xqMd-3" value="Nhập n" style="shape=parallelogram;perimeter=parallelogramPerimeter;whiteSpace=wrap;html=1;fixedSize=1;" parent="1" vertex="1">
          <mxGeometry x="360" y="200" width="120" height="60" as="geometry" />
        </mxCell>
        <mxCell id="eC_KWD_Ks0Vh9gt3xqMd-4" value="n &amp;gt; 0" style="rhombus;whiteSpace=wrap;html=1;" parent="1" vertex="1">
          <mxGeometry x="380" y="290" width="80" height="80" as="geometry" />
        </mxCell>
        <mxCell id="eC_KWD_Ks0Vh9gt3xqMd-5" value="Số không hợp lệ" style="shape=parallelogram;perimeter=parallelogramPerimeter;whiteSpace=wrap;html=1;fixedSize=1;" parent="1" vertex="1">
          <mxGeometry x="210" y="300" width="120" height="60" as="geometry" />
        </mxCell>
        <mxCell id="eC_KWD_Ks0Vh9gt3xqMd-6" value="giai_thua = 1, i = 1" style="rounded=0;whiteSpace=wrap;html=1;" parent="1" vertex="1">
          <mxGeometry x="360" y="410" width="120" height="60" as="geometry" />
        </mxCell>
        <mxCell id="eC_KWD_Ks0Vh9gt3xqMd-7" value="&lt;span class=&quot;hljs-selector-tag&quot;&gt;i&lt;/span&gt; ≤ &lt;span class=&quot;hljs-selector-tag&quot;&gt;n&lt;/span&gt; ?" style="rhombus;whiteSpace=wrap;html=1;" parent="1" vertex="1">
          <mxGeometry x="380" y="520" width="80" height="80" as="geometry" />
        </mxCell>
        <mxCell id="eC_KWD_Ks0Vh9gt3xqMd-8" value="&lt;span class=&quot;hljs-selector-tag&quot;&gt;giai_thua&lt;/span&gt; = &lt;span class=&quot;hljs-selector-tag&quot;&gt;giai_thua&lt;/span&gt; × &lt;span class=&quot;hljs-selector-tag&quot;&gt;i&lt;/span&gt;&lt;div&gt;&lt;span class=&quot;hljs-selector-tag&quot;&gt;&lt;span class=&quot;hljs-selector-tag&quot;&gt;i++&lt;/span&gt;&lt;/span&gt;&lt;/div&gt;" style="rounded=0;whiteSpace=wrap;html=1;" parent="1" vertex="1">
          <mxGeometry x="190" y="620" width="170" height="60" as="geometry" />
        </mxCell>
        <mxCell id="eC_KWD_Ks0Vh9gt3xqMd-9" value="&lt;span class=&quot;hljs-selector-tag&quot;&gt;Hi&lt;/span&gt;ể&lt;span class=&quot;hljs-selector-tag&quot;&gt;n&lt;/span&gt; &lt;span class=&quot;hljs-selector-tag&quot;&gt;th&lt;/span&gt;ị: &lt;span class=&quot;hljs-selector-tag&quot;&gt;giai_thua&lt;/span&gt;" style="shape=parallelogram;perimeter=parallelogramPerimeter;whiteSpace=wrap;html=1;fixedSize=1;" parent="1" vertex="1">
          <mxGeometry x="470" y="620" width="150" height="60" as="geometry" />
        </mxCell>
        <mxCell id="eC_KWD_Ks0Vh9gt3xqMd-10" value="" style="endArrow=classic;html=1;rounded=0;exitX=0.5;exitY=1;exitDx=0;exitDy=0;entryX=0.5;entryY=0;entryDx=0;entryDy=0;" parent="1" source="eC_KWD_Ks0Vh9gt3xqMd-1" target="eC_KWD_Ks0Vh9gt3xqMd-3" edge="1">
          <mxGeometry width="50" height="50" relative="1" as="geometry">
            <mxPoint x="390" y="330" as="sourcePoint" />
            <mxPoint x="440" y="280" as="targetPoint" />
          </mxGeometry>
        </mxCell>
        <mxCell id="eC_KWD_Ks0Vh9gt3xqMd-11" value="" style="endArrow=classic;html=1;rounded=0;exitX=0.5;exitY=1;exitDx=0;exitDy=0;entryX=0.5;entryY=0;entryDx=0;entryDy=0;" parent="1" source="eC_KWD_Ks0Vh9gt3xqMd-3" target="eC_KWD_Ks0Vh9gt3xqMd-4" edge="1">
          <mxGeometry width="50" height="50" relative="1" as="geometry">
            <mxPoint x="390" y="330" as="sourcePoint" />
            <mxPoint x="440" y="280" as="targetPoint" />
          </mxGeometry>
        </mxCell>
        <mxCell id="eC_KWD_Ks0Vh9gt3xqMd-12" value="" style="endArrow=classic;html=1;rounded=0;exitX=0;exitY=0.5;exitDx=0;exitDy=0;entryX=1;entryY=0.5;entryDx=0;entryDy=0;" parent="1" source="eC_KWD_Ks0Vh9gt3xqMd-4" target="eC_KWD_Ks0Vh9gt3xqMd-5" edge="1">
          <mxGeometry width="50" height="50" relative="1" as="geometry">
            <mxPoint x="390" y="330" as="sourcePoint" />
            <mxPoint x="440" y="280" as="targetPoint" />
          </mxGeometry>
        </mxCell>
        <mxCell id="eC_KWD_Ks0Vh9gt3xqMd-13" value="" style="endArrow=classic;html=1;rounded=0;entryX=0.5;entryY=0;entryDx=0;entryDy=0;exitX=0.5;exitY=0.925;exitDx=0;exitDy=0;exitPerimeter=0;" parent="1" source="eC_KWD_Ks0Vh9gt3xqMd-4" target="eC_KWD_Ks0Vh9gt3xqMd-6" edge="1">
          <mxGeometry width="50" height="50" relative="1" as="geometry">
            <mxPoint x="420" y="370" as="sourcePoint" />
            <mxPoint x="440" y="350" as="targetPoint" />
          </mxGeometry>
        </mxCell>
        <mxCell id="eC_KWD_Ks0Vh9gt3xqMd-14" value="" style="endArrow=classic;html=1;rounded=0;exitX=0.5;exitY=1;exitDx=0;exitDy=0;entryX=0.5;entryY=0;entryDx=0;entryDy=0;" parent="1" source="eC_KWD_Ks0Vh9gt3xqMd-6" target="eC_KWD_Ks0Vh9gt3xqMd-7" edge="1">
          <mxGeometry width="50" height="50" relative="1" as="geometry">
            <mxPoint x="390" y="520" as="sourcePoint" />
            <mxPoint x="440" y="470" as="targetPoint" />
          </mxGeometry>
        </mxCell>
        <mxCell id="eC_KWD_Ks0Vh9gt3xqMd-15" value="" style="endArrow=classic;html=1;rounded=0;exitX=1;exitY=1;exitDx=0;exitDy=0;entryX=0;entryY=0.25;entryDx=0;entryDy=0;" parent="1" source="eC_KWD_Ks0Vh9gt3xqMd-7" target="eC_KWD_Ks0Vh9gt3xqMd-9" edge="1">
          <mxGeometry width="50" height="50" relative="1" as="geometry">
            <mxPoint x="390" y="650" as="sourcePoint" />
            <mxPoint x="440" y="600" as="targetPoint" />
          </mxGeometry>
        </mxCell>
        <mxCell id="eC_KWD_Ks0Vh9gt3xqMd-16" value="" style="endArrow=classic;html=1;rounded=0;exitX=0;exitY=1;exitDx=0;exitDy=0;entryX=1;entryY=0.25;entryDx=0;entryDy=0;" parent="1" source="eC_KWD_Ks0Vh9gt3xqMd-7" target="eC_KWD_Ks0Vh9gt3xqMd-8" edge="1">
          <mxGeometry width="50" height="50" relative="1" as="geometry">
            <mxPoint x="390" y="650" as="sourcePoint" />
            <mxPoint x="440" y="600" as="targetPoint" />
          </mxGeometry>
        </mxCell>
        <mxCell id="eC_KWD_Ks0Vh9gt3xqMd-17" value="End" style="ellipse;whiteSpace=wrap;html=1;" parent="1" vertex="1">
          <mxGeometry x="354" y="710" width="120" height="80" as="geometry" />
        </mxCell>
        <mxCell id="eC_KWD_Ks0Vh9gt3xqMd-18" value="" style="endArrow=classic;html=1;rounded=0;exitX=0.25;exitY=1;exitDx=0;exitDy=0;" parent="1" source="eC_KWD_Ks0Vh9gt3xqMd-9" target="eC_KWD_Ks0Vh9gt3xqMd-17" edge="1">
          <mxGeometry width="50" height="50" relative="1" as="geometry">
            <mxPoint x="390" y="690" as="sourcePoint" />
            <mxPoint x="440" y="640" as="targetPoint" />
          </mxGeometry>
        </mxCell>
        <mxCell id="eC_KWD_Ks0Vh9gt3xqMd-19" value="" style="endArrow=classic;html=1;rounded=0;exitX=0.5;exitY=0;exitDx=0;exitDy=0;" parent="1" source="eC_KWD_Ks0Vh9gt3xqMd-8" edge="1">
          <mxGeometry width="50" height="50" relative="1" as="geometry">
            <mxPoint x="390" y="520" as="sourcePoint" />
            <mxPoint x="420" y="500" as="targetPoint" />
            <Array as="points">
              <mxPoint x="275" y="500" />
            </Array>
          </mxGeometry>
        </mxCell>
        <mxCell id="eC_KWD_Ks0Vh9gt3xqMd-20" value="Yes" style="text;html=1;align=center;verticalAlign=middle;whiteSpace=wrap;rounded=0;" parent="1" vertex="1">
          <mxGeometry x="420" y="370" width="60" height="30" as="geometry" />
        </mxCell>
        <mxCell id="eC_KWD_Ks0Vh9gt3xqMd-21" value="No" style="text;html=1;align=center;verticalAlign=middle;whiteSpace=wrap;rounded=0;" parent="1" vertex="1">
          <mxGeometry x="330" y="300" width="60" height="30" as="geometry" />
        </mxCell>
        <mxCell id="eC_KWD_Ks0Vh9gt3xqMd-22" value="Yes" style="text;html=1;align=center;verticalAlign=middle;whiteSpace=wrap;rounded=0;" parent="1" vertex="1">
          <mxGeometry x="330" y="585" width="60" height="30" as="geometry" />
        </mxCell>
        <mxCell id="eC_KWD_Ks0Vh9gt3xqMd-23" value="No" style="text;html=1;align=center;verticalAlign=middle;whiteSpace=wrap;rounded=0;" parent="1" vertex="1">
          <mxGeometry x="460" y="580" width="60" height="30" as="geometry" />
        </mxCell>
        <mxCell id="8QjIomkMvGBR-TI6FEUd-1" value="" style="endArrow=classic;html=1;rounded=0;exitX=0;exitY=0.5;exitDx=0;exitDy=0;entryX=0;entryY=0.5;entryDx=0;entryDy=0;" edge="1" parent="1" source="eC_KWD_Ks0Vh9gt3xqMd-5" target="eC_KWD_Ks0Vh9gt3xqMd-17">
          <mxGeometry width="50" height="50" relative="1" as="geometry">
            <mxPoint x="390" y="560" as="sourcePoint" />
            <mxPoint x="440" y="510" as="targetPoint" />
            <Array as="points">
              <mxPoint x="120" y="330" />
              <mxPoint x="120" y="750" />
            </Array>
          </mxGeometry>
        </mxCell>
      </root>
    </mxGraphModel>
  </diagram>
</mxfile>
